# xmcd
#
# Track frame offsets:
#	150
#	14782
#	28868
#	44856
#	59572
#	76466
#	91170
#	108029
#	122144
#	137009
#	151233
#	168033
#
# Disc length: 2514 seconds
#
# Revision: 1
# Processed by: cddbd v1.5.1PL2 Copyright (c) Steve Scherf et al.
# Submitted via: audiograbber 1.83.01
#
DISCID=9c09d00c
DTITLE=DARKO RADOVANOVIC - Darko Radovanovic
DYEAR=2005
DGENRE=Pop
TTITLE0=Stidim se
TTITLE1=Losa procena
TTITLE2=Hladna je noc
TTITLE3=Necu
TTITLE4=Daleko od istine
TTITLE5=Potera
TTITLE6=Samo tako
TTITLE7=Nedelja
TTITLE8=Nevera
TTITLE9=Prijatelji moji brinu
TTITLE10=Nije meni sudjeno
TTITLE11=Pobedila si ti
EXTD=
EXTT0=
EXTT1=
EXTT2=
EXTT3=
EXTT4=
EXTT5=
EXTT6=
EXTT7=
EXTT8=
EXTT9=
EXTT10=
EXTT11=
PLAYORDER=
